Coordinates
version=1
nRows=9
nColumns=36
inDegrees=yes

Units are S.I. units (second, meters, Newtons, ...)
If the header above contains a line with 'inDegrees', this indicates whether rotational values are in degrees (yes) or radians (no).

endheader
time	pelvis_tilt	pelvis_list	pelvis_rotation	pelvis_tx	pelvis_ty	pelvis_tz	hip_flexion_r	hip_adduction_r	hip_rotation_r	knee_angle_r	knee_angle_r_beta	ankle_angle_r	subtalar_angle_r	mtp_angle_r	hip_flexion_l	hip_adduction_l	hip_rotation_l	knee_angle_l	knee_angle_l_beta	ankle_angle_l	subtalar_angle_l	mtp_angle_l	lumbar_extension	lumbar_bending	lumbar_rotation	arm_flex_r	arm_add_r	arm_rot_r	elbow_flex_r	pro_sup_r	arm_flex_l	arm_add_l	arm_rot_l	elbow_flex_l	pro_sup_l
     29.61666670	     -3.07537627	      3.25291876	   -177.11956202	      0.58306636	      1.03576178	      0.88969425	     20.77179882	     -3.65137918	     -0.01554591	     76.95119460	      1.34305171	     -7.70771135	    -13.13204118	     -7.49999987	     17.67573248	     -1.86634361	     -4.82002180	     27.64108688	      0.48242797	      2.14112602	     -9.13669840	     -7.49999987	    -18.51143174	      6.24785553	      4.57870492	     15.72965032	    -11.51059702	     -4.52154380	     24.00429400	     81.01490448	     10.35855096	     -3.07009146	     -9.16241431	     22.19487850	     79.10819970
     29.63333330	     -3.08787787	      3.15286417	   -177.66119456	      0.58297069	      1.03962024	      0.88878778	     21.97760641	     -3.74942183	      0.18266980	     74.67107813	      1.30325617	     -9.02366795	    -15.05618143	     -7.49999987	     15.92451102	     -1.83192799	     -4.71645757	     27.04152184	      0.47196359	      2.57494203	     -7.96099774	     -7.49999987	    -18.82100665	      5.89291059	      4.07558001	     15.12188815	    -10.85324264	     -4.24936692	     23.22488285	     80.73451464	     11.31609117	     -3.68280033	     -8.01970053	     23.47644026	     79.03812932
     29.65000000	     -2.85214298	      3.13432868	   -178.16618744	      0.58640312	      1.04483653	      0.89024789	     23.20246448	     -3.76185822	      0.23505093	     71.37520422	      1.24573232	    -10.44296553	    -16.94719871	     -7.49999987	     14.57111611	     -1.76959484	     -4.62202534	     25.97169478	      0.45329159	      2.39105361	     -6.46526320	     -7.49999987	    -18.87608353	      5.69407904	      3.53853860	     14.39438260	    -10.26938381	     -4.06146778	     22.27358137	     80.99808661	     12.19089253	     -4.28688155	     -6.58738825	     25.02845339	     79.56256294
     29.66666670	     -2.21985463	      2.98538691	   -178.34191162	      0.59356312	      1.04950053	      0.89446178	     24.79782035	     -3.99002219	      0.14894560	     67.30175968	      1.17463730	    -12.14140518	    -18.56672847	     -7.49999987	     14.06795628	     -1.40141378	     -4.33366621	     25.00893251	      0.43648821	      2.08472275	     -5.26214131	     -7.49999987	    -18.70204077	      5.51481892	      2.84772827	     13.59455674	     -9.81950361	     -4.25896701	     21.40835554	     81.45196028	     13.14559800	     -4.80973060	     -5.66106844	     26.56499090	     80.28242725
     29.68333330	     -1.50427977	      2.56013536	   -178.29030775	      0.60107339	      1.05310675	      0.89896355	     26.42199747	     -4.49700226	      0.13911432	     62.70996197	      1.09449531	    -13.76386436	    -19.54009668	     -7.49999987	     14.11268699	     -0.71477219	     -4.04966763	     24.68542477	      0.43084194	      2.13201638	     -4.58963209	     -7.49999987	    -18.69286059	      5.19118359	      2.08375264	     12.95126856	     -9.45260637	     -4.64142293	     20.55359575	     80.99973630	     14.12410720	     -5.39511882	     -3.94224519	     28.09138838	     80.34695333
     29.70000000	     -0.52579975	      1.84983652	   -178.09304855	      0.60655478	      1.05479977	      0.90239583	     28.27579009	     -5.26011688	      0.33545527	     58.14328257	      1.01479172	    -15.21024128	    -20.14794742	     -7.49999987	     14.83850062	      0.33991158	     -3.58736869	     25.27601933	      0.44114976	      2.65423704	     -4.85240013	     -7.49999987	    -18.39100764	      4.71412362	      1.21953713	     12.19832416	     -9.28373447	     -5.09762927	     20.11829638	     79.84307535	     15.05090328	     -5.71709234	     -3.50427542	     29.36742672	     79.48169148
     29.71666670	      0.27956389	      1.16551068	   -177.91646980	      0.61097811	      1.05309900	      0.90410022	     29.59786849	     -5.91969159	      0.62849460	     53.58074247	      0.93516037	    -16.47867664	    -19.27465373	     -7.49999987	     15.78087426	      1.20481494	     -3.67724655	     26.92533116	      0.46993568	      3.99557630	     -4.95276560	     -7.49999987	    -18.18980514	      4.23845605	      0.52584083	     11.47368510	     -8.94270854	     -8.40728764	     19.55853681	     84.23138155	     16.00505751	     -6.25556424	     -2.55965418	     30.31998336	     84.52087695
     29.73333330	      1.24736897	      0.53854422	   -177.87883829	      0.61546396	      1.04843625	      0.90437314	     31.07128242	     -6.47460655	      1.02779129	     49.46441196	      0.86331685	    -17.64543978	    -17.98394428	     -7.49999987	     17.04762425	      1.95344203	     -3.87416687	     29.10886416	      0.50804552	      5.66794047	     -5.62009638	     -7.49999987	    -17.70412077	      3.76276588	     -0.35687410	     10.87311337	     -8.83316120	     -8.85099418	     19.08107095	     82.48001323	     16.73871325	     -6.81991197	     -2.02359669	     31.29931675	     82.97527464
     29.75000000	      2.19336587	      0.13072097	   -177.91023442	      0.61910141	      1.04565412	      0.90338491	     32.43525725	     -6.73052823	      1.26608046	     45.41312517	      0.79260856	    -18.18953214	    -16.09271324	     -7.49999987	     18.01936112	      2.38392479	     -4.15722864	     30.90008365	      0.53930820	      7.41561228	     -6.13578952	     -7.49999987	    -17.12680848	      3.42015849	     -1.06517094	     10.23731426	     -8.77207910	     -9.36695352	     18.79441717	     80.85536333	     17.52183288	     -7.45396830	     -1.51920545	     32.03053195	     81.58461211
